<svg width="17" height="17" viewBox="0 0 17 17" fill="none" xmlns="http://www.w3.org/2000/svg">
<path fill-rule="evenodd" clip-rule="evenodd" d="M8.5 0C13.1941 0 17 3.32986 17 7.4375C17 9.78511 15.7542 11.875 13.8125 13.2382V17L10.089 14.7406C9.57364 14.8256 9.04347 14.875 8.5 14.875C3.80533 14.875 0 11.5451 0 7.4375C0 3.32986 3.80533 0 8.5 0ZM4.78125 5.84375C4.488 5.84375 4.25 6.08175 4.25 6.375C4.25 6.66825 4.488 6.90625 4.78125 6.90625H12.2188C12.512 6.90625 12.75 6.66825 12.75 6.375C12.75 6.08175 12.512 5.84375 12.2188 5.84375H4.78125ZM5.84375 9.03125C5.5505 9.03125 5.3125 9.26925 5.3125 9.5625C5.3125 9.85575 5.5505 10.0938 5.84375 10.0938H11.1562C11.4495 10.0938 11.6875 9.85575 11.6875 9.5625C11.6875 9.26925 11.4495 9.03125 11.1562 9.03125H5.84375ZM10.2956 13.6175C9.71975 13.7403 9.1205 13.8125 8.5 13.8125C4.39236 13.8125 1.0625 10.9581 1.0625 7.4375C1.0625 3.91692 4.39236 1.0625 8.5 1.0625C12.6076 1.0625 15.9375 3.91692 15.9375 7.4375C15.9375 9.59758 14.6806 11.5037 12.7633 12.657L12.7968 15.1209L10.2956 13.6175Z" fill="#193FA4"/>
</svg>
