<svg width="15" height="16" viewBox="0 0 15 16" fill="none" xmlns="http://www.w3.org/2000/svg">
<path fill-rule="evenodd" clip-rule="evenodd" d="M2.15472 13.4428V6.86356C2.15472 6.27164 1.67241 5.7918 1.07736 5.7918C0.482472 5.7918 0 6.27164 0 6.86356V13.4428C0 14.0347 0.482472 14.5145 1.07736 14.5145C1.67241 14.5145 2.15472 14.0347 2.15472 13.4428ZM4.76224 12.9948C6.02026 13.5231 9.86965 14.0729 10.6005 13.7822C10.9867 13.4329 11.9576 11.2355 12.6349 9.36856C12.6827 9.23652 12.7717 9.12312 12.8888 9.04498C13.4367 8.67889 13.7205 8.25988 13.6676 7.89526C13.6249 7.60136 13.3594 7.35081 12.9572 7.22504C12.1249 6.96427 10.0833 6.51427 10.0627 6.50982C9.83059 6.45872 9.64383 6.28796 9.57295 6.06213C9.50224 5.83647 9.55828 5.59037 9.72015 5.41697C11.2089 3.82153 11.4728 2.17813 11.1847 1.52077C11.0962 1.31901 11.0042 1.31901 10.9549 1.31901C10.6282 1.31901 10.4754 1.54632 10.1378 2.53533C9.74273 3.69197 8.37823 5.07246 6.74241 5.97048C5.94873 6.40598 5.15455 6.97482 4.76224 7.26691V12.9948ZM9.76795 15.1648C7.72218 15.1648 4.50988 14.4873 3.71455 13.9236C3.53999 13.7998 3.43631 13.5997 3.43631 13.3864V6.9407C3.43631 6.73894 3.52911 6.54839 3.68818 6.42329C3.73681 6.38504 4.89395 5.47812 6.10202 4.81549C7.60218 3.99181 8.63636 2.83153 8.88246 2.11088C9.18658 1.22011 9.60311 0 10.9549 0C11.5965 0 12.1233 0.362142 12.4 0.99346C12.9613 2.27373 12.3702 4.05197 11.3845 5.45768C12.0481 5.61329 12.8718 5.81537 13.3551 5.96669C14.2552 6.24823 14.8627 6.89883 14.9799 7.70669C15.1004 8.53663 14.6762 9.36691 13.811 10.0109C13.1761 11.74 12.0654 14.4807 11.259 14.9293C10.9612 15.0949 10.4245 15.1648 9.76795 15.1648Z" fill="#2055B3"/>
</svg>
