<svg width="37" height="34" xmlns="http://www.w3.org/2000/svg"><g fill="#193FA4" fill-rule="nonzero"><path d="M16.416 33.675C7.364 33.675 0 26.311 0 17.26S7.364.843 16.416.843c9.053 0 16.417 7.365 16.417 16.416a.939.939 0 1 1-1.878 0c0-8.017-6.522-14.541-14.54-14.541-8.018 0-14.54 6.524-14.54 14.54 0 8.018 6.522 14.54 14.54 14.54 5.13 0 9.934-2.749 12.54-7.174a.938.938 0 0 1 1.618.953c-2.94 4.995-8.366 8.098-14.157 8.098z"/><path d="M31.894 18.198a.938.938 0 0 1-.476-.13l-5.878-3.472a.938.938 0 1 1 .954-1.614l5.13 3.028 3.3-4.728a.938.938 0 0 1 1.539 1.073l-3.8 5.44a.936.936 0 0 1-.769.403z"/></g></svg>