<svg width="60" height="85" viewBox="0 0 60 85" fill="none" xmlns="http://www.w3.org/2000/svg">
<path d="M0.405441 84.3243C0.405441 84.3243 -1.68278 66.018 16.3054 63.9757H24.0027V60.4297C24.0027 60.4297 29.4173 62.7554 34.9 60.6892L35.073 63.9757H44.0676C44.0676 63.9757 59.7311 65.5394 58.7838 84.3243H0.405441Z" fill="white"/>
<path d="M58.9206 84.8486H1.24837H0.129883L0.409075 80.0791C0.954204 70.7665 8.29155 63.6595 16.6881 63.6595H23.0783V64.6108H17.1979C9.10529 64.6108 2.0336 71.4517 1.5082 80.4156L1.31427 83.7243H58.7682L58.6608 80.4156C58.1354 71.4517 51.0637 64.6108 42.9711 64.6108H35.1V63.6595H43.4296C51.8261 63.6595 59.1635 70.7665 59.7086 80.0791L59.9878 84.8486H58.9206Z" fill="#3B434F"/>
<path d="M29.1325 74.3838C24.4993 74.3838 20.7433 70.6278 20.7433 65.9946C20.7433 65.1839 20.8606 64.401 21.0751 63.6595H21.0892H21.9795H23.5109V64.6108H21.7376C21.6536 65.0594 21.6082 65.5216 21.6082 65.9946C21.6082 70.1502 24.9769 73.5189 29.1325 73.5189C33.2881 73.5189 36.6568 70.1502 36.6568 65.9946C36.6568 65.5216 36.6113 65.0594 36.5273 64.6108H34.7541V63.6595H36.2855H37.1757H37.1898C37.4044 64.401 37.5217 65.1839 37.5217 65.9946C37.5217 70.6278 33.7657 74.3838 29.1325 74.3838Z" fill="#3B434F"/>
<path d="M24.2027 60.2323V65.5664C24.2027 68.3345 26.4485 70.5784 29.2189 70.5784C31.9893 70.5784 34.2351 68.3345 34.2351 65.5664V60.3424C34.5262 60.2537 34.8146 60.1575 35.1 60.0535V65.6028C35.1 68.8761 32.4476 71.5297 29.1757 71.5297C25.9038 71.5297 23.2513 68.8761 23.2513 65.6028V59.8893C23.5647 60.0132 23.8821 60.1271 24.2027 60.2323Z" fill="#3B434F"/>
<path d="M29.4354 5.97297C40.1945 5.97297 48.6866 16.0273 48.4104 28.1078L48.117 40.9472C47.8568 52.3282 39.4957 61.3243 29.4354 61.3243C19.3751 61.3243 11.014 52.3282 10.7539 40.9472L10.4604 28.1078C10.1843 16.0273 18.6764 5.97297 29.4354 5.97297Z" fill="white"/>
<path fill-rule="evenodd" clip-rule="evenodd" d="M49.2748 27.7097L48.9673 41.0707C48.6947 52.9141 39.9337 62.2757 29.3921 62.2757C18.8506 62.2757 10.0895 52.9141 9.81694 41.0707L9.50942 27.7097C9.2201 15.1384 18.1184 4.67567 29.3921 4.67567C40.6658 4.67567 49.5642 15.1384 49.2748 27.7097ZM29.3489 6.05946C18.737 6.05946 10.361 16.0352 10.6333 28.0213L10.9228 40.7604C11.1794 52.0525 19.4262 60.9784 29.3489 60.9784C39.2717 60.9784 47.5185 52.0525 47.7751 40.7604L48.0645 28.0213C48.3369 16.0352 39.9609 6.05946 29.3489 6.05946Z" fill="#3B434F"/>
<path d="M27.3162 54.4919H31.4675C31.6586 54.4919 31.8135 54.6468 31.8135 54.8378C31.8135 55.0289 31.6586 55.1838 31.4675 55.1838H27.3162C27.1251 55.1838 26.9702 55.0289 26.9702 54.8378C26.9702 54.6468 27.1251 54.4919 27.3162 54.4919Z" fill="#3B434F"/>
<path d="M23.6835 50.3527L24.1652 49.6783C25.7139 50.5642 27.5538 51.0777 29.5277 51.0777C31.5237 51.0777 33.3825 50.5525 34.9418 49.6484L35.4462 50.3449C33.7498 51.3269 31.7285 51.8973 29.5582 51.8973C27.3936 51.8973 25.3771 51.33 23.6835 50.3527Z" fill="#3B434F"/>
<path d="M9.48793 29.6581C9.48554 29.6582 9.27558 29.4905 8.87909 29.3657C8.68093 29.3034 8.43465 29.2522 8.15393 29.2395C8.08383 29.2364 8.01167 29.2356 7.93784 29.2377C7.86401 29.2398 7.7885 29.2448 7.71175 29.253C7.55825 29.2694 7.39972 29.2988 7.2402 29.3447C6.60145 29.5283 5.94985 29.9746 5.56717 30.8958C5.37507 31.3564 5.24834 31.9357 5.21484 32.6607C5.20645 32.8419 5.20389 33.0322 5.20757 33.232C5.21125 33.4319 5.22117 33.6412 5.23774 33.8605C5.27087 34.2991 5.33069 34.7774 5.41982 35.2986C5.41787 35.2981 5.33669 36.8736 5.89993 38.6839C6.42944 40.4539 7.70096 42.6282 10.0486 43.2495C9.77862 38.7537 9.77023 34.1736 9.48793 29.6581Z" fill="white"/>
<path d="M9.7556 29.8393C9.7556 29.8393 5.66579 28.5721 5.80972 32.7766C5.80972 32.7766 6.41862 38.8734 6.68304 39.4353C6.68304 39.4353 8.28922 42.985 10.94 43.1423C13.5307 43.2961 10.94 43.1423 10.94 43.1423L10.9722 44.2865C10.9722 44.2865 6.31311 43.6891 5.41325 38.32L4.703 33.4424C4.703 33.4424 4.15153 26.9875 9.50087 28.6287C14.7122 30.2276 9.50087 28.6287 9.50087 28.6287L9.7556 29.8393Z" fill="#3B434F"/>
<path d="M8.40579 38.3098C8.40579 38.3098 8.1769 38.4827 7.98028 38.4827C7.78366 38.4827 7.55757 38.3098 7.55757 38.3098L7.1355 34.0565C7.1355 34.0565 7.71785 31.9619 10.189 33.0688L10.2474 34.285C10.2474 34.285 8.07935 33.5161 8.12418 34.4735C8.16733 35.3951 8.40579 38.3098 8.40579 38.3098Z" fill="#3B434F"/>
<path d="M49.2189 29.668C49.2213 29.6681 49.4322 29.5006 49.8304 29.3758C50.0295 29.3136 50.2768 29.2624 50.5588 29.2498C50.6292 29.2466 50.7016 29.2459 50.7758 29.248C50.8499 29.2501 50.9258 29.255 51.0029 29.2632C51.157 29.2796 51.3163 29.309 51.4765 29.3549C52.118 29.5383 52.7725 29.9843 53.1569 30.9049C53.3498 31.3652 53.4771 31.9441 53.5107 32.6686C53.5191 32.8497 53.5217 33.0399 53.518 33.2396C53.5143 33.4393 53.5044 33.6485 53.4877 33.8676C53.4544 34.3059 53.3944 34.7838 53.3048 35.3047C53.3068 35.3042 53.3883 36.8786 52.8226 38.6878C52.2908 40.4565 51.0137 42.6293 48.6558 43.2502C48.9269 38.7575 48.9354 34.1805 49.2189 29.668Z" fill="white"/>
<path d="M48.9492 29.8491C48.9492 29.8491 53.0569 28.5828 52.9124 32.7845C52.9124 32.7845 52.3008 38.8771 52.0352 39.4386C52.0352 39.4386 50.422 42.9859 47.7596 43.1431C45.1575 43.2968 47.7596 43.1431 47.7596 43.1431L47.7273 44.2865C47.7273 44.2865 52.4068 43.6895 53.3106 38.3241L54.0239 33.4498C54.0239 33.4498 54.5778 26.9992 49.2051 28.6393C43.9709 30.2371 49.2051 28.6393 49.2051 28.6393L48.9492 29.8491Z" fill="#3B434F"/>
<path d="M50.305 38.3138C50.305 38.3138 50.5349 38.4867 50.7324 38.4867C50.9298 38.4867 51.1569 38.3138 51.1569 38.3138L51.5808 34.0634C51.5808 34.0634 50.9959 31.9702 48.514 33.0764L48.4553 34.2918C48.4553 34.2918 50.6329 33.5234 50.5878 34.4802C50.5445 35.4012 50.305 38.3138 50.305 38.3138Z" fill="#3B434F"/>
<path fill-rule="evenodd" clip-rule="evenodd" d="M30.9919 37.973C31.0928 37.973 31.1937 37.973 31.2946 37.973C31.9204 38.8229 32.175 40.129 32.5054 41.2595C32.6078 41.6098 32.5084 42.2226 32.4189 42.4703C32.091 43.3775 31.0613 43.3612 30.2135 43.7676C29.9858 43.8767 29.8165 44.0651 29.5216 44.1135C29.3294 43.9442 29.0973 43.9109 29.0027 43.6378C28.7691 43.3162 29.0702 43.1154 29.3054 42.9892C29.7323 42.7602 31.0503 42.5345 31.2081 42.1243C31.4033 41.9022 31.2735 41.2344 31.2081 41C31.0405 40.3996 30.9601 39.8983 30.7324 39.3568C30.5812 38.9971 30.3156 38.6178 30.473 38.1892C30.6033 38.1332 30.8851 38.0696 30.9919 37.973Z" fill="#3B434F"/>
<path d="M18.4081 31.867H21.5217C21.9515 31.867 22.3 32.2852 22.3 32.8011C22.3 33.3169 21.9515 33.7351 21.5217 33.7351H18.4081C17.9783 33.7351 17.6298 33.3169 17.6298 32.8011C17.6298 32.2852 17.9783 31.867 18.4081 31.867Z" fill="#3B434F"/>
<path d="M37.4351 31.6595H40.5486C40.9785 31.6595 41.327 32.0776 41.327 32.5935C41.327 33.1094 40.9785 33.5276 40.5486 33.5276H37.4351C37.0052 33.5276 36.6567 33.1094 36.6567 32.5935C36.6567 32.0776 37.0052 31.6595 37.4351 31.6595Z" fill="#3B434F"/>
<path d="M39.8567 37.0216C41.0509 37.0216 42.0189 37.9897 42.0189 39.1838C42.0189 40.3779 41.0509 41.3459 39.8567 41.3459C38.6626 41.3459 37.6946 40.3779 37.6946 39.1838C37.6946 37.9897 38.6626 37.0216 39.8567 37.0216Z" fill="#EDF1F1"/>
<path d="M18.9271 37.0216C20.1212 37.0216 21.0892 37.9897 21.0892 39.1838C21.0892 40.3779 20.1212 41.3459 18.9271 41.3459C17.7329 41.3459 16.7649 40.3779 16.7649 39.1838C16.7649 37.9897 17.7329 37.0216 18.9271 37.0216Z" fill="#EDF1F1"/>
<path fill-rule="evenodd" clip-rule="evenodd" d="M46.6892 29.0649V35.4649C46.6892 37.0289 45.1636 39.4693 42.6776 39.6091C42.3124 39.5917 34.927 39.6162 34.927 39.6162C31.6071 39.6162 30.9486 35.6378 30.9486 35.6378V31.3135H27.8351V35.6378C27.8351 35.6378 27.1767 39.6162 23.8568 39.6162C23.8568 39.6162 16.4714 39.5917 16.1062 39.6091C13.6202 39.4693 12.0946 37.0289 12.0946 35.4649V29.0649H9.32703V27.3351H25.4135C25.4135 27.3351 27.8351 27.7263 27.8351 29.4108H30.9486C30.9486 27.7263 33.3703 27.3351 33.3703 27.3351H49.4568V29.0649H46.6892ZM26.1054 29.9297C26.1054 29.3132 25.4135 29.2378 25.4135 29.2378H13.8243V35.2919C13.8243 37.1782 16.4189 37.8865 16.4189 37.8865H23.5108C25.9508 37.8865 26.1054 35.2919 26.1054 35.2919C26.1054 35.2919 26.1054 30.5463 26.1054 29.9297ZM44.9595 29.2378H33.3703C33.3703 29.2378 32.6784 29.3132 32.6784 29.9297C32.6784 30.5463 32.6784 35.2919 32.6784 35.2919C32.6784 35.2919 32.8329 37.8865 35.273 37.8865H42.3649C42.3649 37.8865 44.9595 37.1782 44.9595 35.2919V29.2378ZM42.5378 39.6162C42.585 39.6152 42.6311 39.6117 42.6776 39.6091C42.7167 39.611 42.6774 39.6133 42.5378 39.6162ZM16.1062 39.6091C16.1527 39.6117 16.1988 39.6152 16.2459 39.6162C16.1064 39.6133 16.0671 39.611 16.1062 39.6091Z" fill="#3B434F"/>
<path d="M10.5765 28.8589C10.5765 28.8589 9.80136 20.6217 14.8622 16.2649C14.8622 16.2649 26.8917 28.0883 43.2298 16.2649C43.2298 16.2649 49.1003 22.1369 48.5919 28.5459C48.5919 28.5459 58.4916 17.1907 50.8406 15.0541C50.8406 15.0541 48.9542 15.6033 48.246 12.8054C47.5378 10.0075 46.2184 0.971185 28.3541 0.6973C10.4898 0.423415 11.7487 11.4216 11.7487 11.4216C11.8054 11.4561 1.82633 16.3087 10.5765 28.8589Z" fill="#C1BFBD"/>
<path fill-rule="evenodd" clip-rule="evenodd" d="M48.6784 29.4973C48.4697 22.386 43.2297 17.0432 43.2297 17.0432C26.8916 28.3615 14.9486 17.0432 14.9486 17.0432C11.1233 19.9715 10.6243 29.4108 10.6243 29.4108C0.75689 16.8162 11.2 11.2831 11.1432 11.2486C11.1432 11.2486 10.1443 -0.21421 28.0081 0.091892C46.6141 0.410706 47.9713 9.36964 48.7649 12.5459C49.3977 15.0789 51.6189 14.6216 51.6189 14.6216C59.5665 17.7083 48.6784 29.4973 48.6784 29.4973ZM50.5811 15.573C50.5811 15.573 48.4653 16.1253 47.6405 12.8054C46.9447 10.0044 46.2183 1.57659 28.354 1.3027C10.4898 1.02882 12.2676 11.8541 12.2676 11.8541C12.3243 11.8885 3.28932 16.1819 9.93243 26.8162C9.93243 26.8162 9.71482 19.8433 14.7757 15.4865C14.7757 15.4865 26.4146 27.7795 43.4027 15.573C43.4027 15.573 48.7855 20.6984 49.1973 26.9892C49.1973 26.9892 57.1355 17.0107 50.5811 15.573Z" fill="#3B434F"/>
</svg>
