<svg width="15" height="15" fill="none" xmlns="http://www.w3.org/2000/svg"><path fill-rule="evenodd" clip-rule="evenodd" d="M11.04 9.95l3.687 3.713a.773.773 0 0 1-.022 1.117.826.826 0 0 1-.566.22.823.823 0 0 1-.588-.242l-3.714-3.741a6.327 6.327 0 0 1-3.583 1.096C2.806 12.113 0 9.396 0 6.056 0 2.716 2.806 0 6.254 0c3.448 0 6.254 2.717 6.254 6.056 0 1.43-.52 2.802-1.467 3.894zm-.164-3.894c0-2.468-2.073-4.476-4.622-4.476S1.63 3.588 1.63 6.056c0 2.469 2.074 4.477 4.623 4.477 2.549 0 4.622-2.008 4.622-4.477z" fill="#2055B3"/><path fill-rule="evenodd" clip-rule="evenodd" d="M8.797 6.603H6.583v2.22h-.851v-2.22H3.519V5.75h2.213V3.53h.851v2.22h2.214v.853z" fill="#193FA4"/></svg>