<svg width="14" height="18" viewBox="0 0 14 18" fill="none" xmlns="http://www.w3.org/2000/svg">
<path fill-rule="evenodd" clip-rule="evenodd" d="M9.13758 12.4869C9.65095 11.9827 10.3538 11.6708 11.1284 11.6708C12.696 11.6708 13.971 12.946 13.971 14.5134C13.971 16.0808 12.696 17.3559 11.1284 17.3559C9.56104 17.3559 8.28588 16.0808 8.28588 14.5134C8.28588 14.0878 8.38056 13.6841 8.54899 13.3211L4.83342 10.7044C4.32018 11.2087 3.61719 11.5205 2.84256 11.5205C1.27516 11.5205 0 10.2454 0 8.67797C0 7.11057 1.27516 5.83541 2.84256 5.83541C3.61719 5.83541 4.32018 6.14725 4.83342 6.65148L8.54899 4.03483C8.38056 3.67201 8.28588 3.26827 8.28588 2.84256C8.28588 1.27516 9.56104 0 11.1284 0C12.696 0 13.971 1.27516 13.971 2.84256C13.971 4.40996 12.696 5.68512 11.1284 5.68512C10.3538 5.68512 9.65082 5.37328 9.13758 4.86904L5.42201 7.4857C5.59044 7.84852 5.68512 8.25238 5.68512 8.67797C5.68512 9.10355 5.59044 9.50728 5.42201 9.87023L9.13758 12.4869ZM11.1284 12.6917C10.1241 12.6917 9.30694 13.5089 9.30694 14.5134C9.30694 15.5177 10.1241 16.335 11.1284 16.335C12.1329 16.335 12.9501 15.5177 12.9501 14.5134C12.9501 13.509 12.1329 12.6917 11.1284 12.6917ZM2.84256 10.4996C1.83806 10.4996 1.02092 9.68234 1.02092 8.67797C1.02092 7.6736 1.83819 6.85633 2.84256 6.85633C3.84706 6.85633 4.6642 7.6736 4.6642 8.67797C4.6642 9.68234 3.84706 10.4996 2.84256 10.4996ZM11.1284 1.02092C10.1241 1.02092 9.30694 1.83819 9.30694 2.84256C9.30694 3.84693 10.1241 4.6642 11.1284 4.6642C12.1329 4.6642 12.9501 3.84706 12.9501 2.84256C12.9501 1.83819 12.1329 1.02092 11.1284 1.02092Z" fill="#193FA4"/>
</svg>
