<svg width="73" height="21" fill="none" xmlns="http://www.w3.org/2000/svg"><path d="M24.971 0h22.693v20.141H41.37V5.012H31.26v15.13H24.97V0zM66.62 8.658V6.38s.012-.275-.09-.502a2.056 2.056 0 0 0-.043-.09 1.373 1.373 0 0 0-.513-.57 1.02 1.02 0 0 0-.3-.14 1.366 1.366 0 0 0-.42-.066h-8.751v15.129h-6.287V0h18.41L67.44 3.782l5.468.737v6.569l-5.605-1.018 1.321 4.967H56.504v-5.012h8.75c.754 0 1.366-.612 1.366-1.367z" fill="#FF4E00"/><path d="M66.62 10.025v5.012h2.197a4.101 4.101 0 0 0 4.1-4.1v-.912h-6.296zM66.62 5.012V0h2.197a4.101 4.101 0 0 1 4.1 4.101v.911h-6.296zM7.658 15.037h7.385a1.367 1.367 0 0 0 1.358-1.275h.003v-.638h6.289v2.005l-3.646 2.096-.82 2.916H4.157l-.648-2.415L0 16.131V4.455L4.158 0h14.694v3.326l3.84.638v3.053h-6.288V6.38c0-.755-.612-1.368-1.367-1.368h-7.34v.001h-.042a1.367 1.367 0 0 0-1.362 1.482l-.005.006v7.172a1.367 1.367 0 0 0 1.367 1.364h.003z" fill="#FF4E00"/><path d="M6.297 5.012V0H4.101A4.101 4.101 0 0 0 0 4.101v.911h6.297zM6.297 15.129v5.012H4.101A4.101 4.101 0 0 1 0 16.04v-.911h6.297zM16.404 15.129v5.012h2.197a4.101 4.101 0 0 0 4.1-4.101v-.911h-6.297zM16.404 5.012V0h2.197a4.101 4.101 0 0 1 4.1 4.101v.911h-6.297z" fill="#FF4E00"/></svg>