<svg width="35" height="35" viewBox="0 0 35 35" fill="none" xmlns="http://www.w3.org/2000/svg">
<rect width="35" height="35" rx="17.5" fill="#F4F4F4"/>
<mask id="mask0" mask-type="alpha" maskUnits="userSpaceOnUse" x="0" y="0" width="35" height="35">
<rect width="35" height="35" rx="17.5" fill="white"/>
</mask>
<g mask="url(#mask0)">
<path d="M24.8034 28.5716L20.8895 26.6149C20.5204 26.4301 20.291 26.0589 20.291 25.6459V24.2607C20.3848 24.146 20.4835 24.0153 20.5855 23.8711C21.0932 23.1541 21.5 22.356 21.7958 21.4953C22.3739 21.2302 22.7492 20.6587 22.7492 20.0134V18.3746C22.7492 17.98 22.6017 17.5978 22.3395 17.2991V15.1199C22.3624 14.8946 22.4525 13.5532 21.4824 12.4466C20.6409 11.4867 19.2753 11 17.4231 11C15.5708 11 14.2053 11.4867 13.3638 12.4462C12.3936 13.5528 12.4837 14.8946 12.5067 15.1199V17.2991C12.2445 17.5978 12.097 17.98 12.097 18.3746V20.0134C12.097 20.512 12.3236 20.977 12.7103 21.2871C13.0856 22.7731 13.871 23.8928 14.1455 24.2521V25.6078C14.1455 26.0044 13.9292 26.3682 13.5813 26.5583L9.9264 28.5519C8.73787 29.2005 8 30.4435 8 31.7971V33.1237C8 35.0682 14.1639 35.5819 17.4231 35.5819C20.6822 35.5819 26.8462 35.0682 26.8462 33.1237V31.877C26.8462 30.4685 26.0632 29.2017 24.8034 28.5716Z" fill="black" fill-opacity="0.180027"/>
</g>
</svg>
